<svg width="42" height="42" viewBox="0 0 42 42" fill="none" xmlns="http://www.w3.org/2000/svg">
<path d="M21 30C16.0293 30 12 25.9707 12 21C12 16.0293 16.0293 12 21 12C25.9707 12 30 16.0293 30 21C30 25.9707 25.9707 30 21 30ZM21 28.2C22.9096 28.2 24.7409 27.4414 26.0912 26.0912C27.4414 24.7409 28.2 22.9096 28.2 21C28.2 19.0904 27.4414 17.2591 26.0912 15.9088C24.7409 14.5586 22.9096 13.8 21 13.8C19.0904 13.8 17.2591 14.5586 15.9088 15.9088C14.5586 17.2591 13.8 19.0904 13.8 21C13.8 22.9096 14.5586 24.7409 15.9088 26.0912C17.2591 27.4414 19.0904 28.2 21 28.2ZM20.1 16.5H21.9V18.3H20.1V16.5ZM20.1 20.1H21.9V25.5H20.1V20.1Z" fill="black" fill-opacity="0.45"/>
</svg>
