<svg width="14" height="14" viewBox="0 0 14 14" fill="none" xmlns="http://www.w3.org/2000/svg">
<g style="mix-blend-mode:luminosity">
<path d="M0.734863 6.05957C0.734863 8.90967 3.05176 11.2266 5.90186 11.2266C6.96191 11.2266 7.93311 10.9028 8.74561 10.3506L11.6655 13.2705C11.8433 13.4546 12.0908 13.5371 12.3384 13.5371C12.8779 13.5371 13.2651 13.1309 13.2651 12.604C13.2651 12.3501 13.1763 12.1152 13.0049 11.9375L10.104 9.03027C10.707 8.19873 11.0688 7.17041 11.0688 6.05957C11.0688 3.20947 8.75195 0.892578 5.90186 0.892578C3.05176 0.892578 0.734863 3.20947 0.734863 6.05957ZM2.08057 6.05957C2.08057 3.95215 3.78809 2.23828 5.90186 2.23828C8.00928 2.23828 9.72314 3.95215 9.72314 6.05957C9.72314 8.16699 8.00928 9.88086 5.90186 9.88086C3.78809 9.88086 2.08057 8.16699 2.08057 6.05957Z" fill="#797979"/>
</g>
</svg>
