<svg width="14" height="14" viewBox="0 0 14 14" fill="none" xmlns="http://www.w3.org/2000/svg">
<g style="mix-blend-mode:luminosity">
<path d="M0.460938 7.35938C0.460938 7.84375 0.859375 8.23438 1.33594 8.23438H6.125V13.0234C6.125 13.5 6.52344 13.8984 7 13.8984C7.47656 13.8984 7.875 13.5 7.875 13.0234V8.23438H12.6641C13.1406 8.23438 13.5391 7.84375 13.5391 7.35938C13.5391 6.88281 13.1406 6.48438 12.6641 6.48438H7.875V1.69531C7.875 1.21875 7.47656 0.820312 7 0.820312C6.52344 0.820312 6.125 1.21875 6.125 1.69531V6.48438H1.33594C0.859375 6.48438 0.460938 6.88281 0.460938 7.35938Z" fill="#797979"/>
</g>
</svg>
