<svg width="15" height="18" viewBox="0 0 15 18" fill="none" xmlns="http://www.w3.org/2000/svg">
<g style="mix-blend-mode:luminosity">
<path d="M0.523438 10.9141C0.523438 14.7891 3.63281 17.9062 7.5 17.9062C11.3672 17.9062 14.4766 14.7891 14.4766 10.9141C14.4766 10.4531 14.1562 10.125 13.6953 10.125C13.25 10.125 12.9531 10.4531 12.9531 10.9141C12.9531 13.9453 10.5234 16.375 7.5 16.375C4.47656 16.375 2.05469 13.9453 2.05469 10.9141C2.05469 7.86719 4.46094 5.45312 7.47656 5.45312C7.99219 5.45312 8.46875 5.49219 8.86719 5.57812L6.74219 7.6875C6.60156 7.83594 6.53125 8 6.53125 8.20312C6.53125 8.63281 6.85156 8.96094 7.27344 8.96094C7.49219 8.96094 7.67188 8.89062 7.80469 8.75L11.0156 5.51562C11.1797 5.35156 11.2578 5.16406 11.2578 4.95312C11.2578 4.75 11.1719 4.54688 11.0156 4.39062L7.80469 1.13281C7.67188 0.984375 7.49219 0.90625 7.27344 0.90625C6.85156 0.90625 6.53125 1.25 6.53125 1.67188C6.53125 1.875 6.60156 2.05469 6.73438 2.19531L8.625 4.0625C8.28125 3.99219 7.88281 3.95312 7.47656 3.95312C3.61719 3.95312 0.523438 7.04688 0.523438 10.9141Z" fill="#797979"/>
</g>
</svg>
