<svg width="17" height="17" viewBox="0 0 17 17" fill="none" xmlns="http://www.w3.org/2000/svg">
<g style="mix-blend-mode:luminosity">
<path d="M2.60156 13.0312H3.92969V14.2109C3.92969 15.875 4.79688 16.7422 6.49219 16.7422H14.3984C16.0859 16.7422 16.9609 15.875 16.9609 14.2109V6.24219C16.9609 4.57812 16.0859 3.71094 14.3984 3.71094H13.0703V2.53125C13.0703 0.867188 12.1953 0 10.5078 0H2.60156C0.914062 0 0.0390625 0.859375 0.0390625 2.53125V10.4922C0.0390625 12.1641 0.914062 13.0312 2.60156 13.0312ZM2.69531 11.5C1.96875 11.5 1.57031 11.125 1.57031 10.3672V2.66406C1.57031 1.90625 1.96875 1.52344 2.69531 1.52344H10.4219C11.1406 1.52344 11.5469 1.90625 11.5469 2.66406V3.71094H6.49219C4.79688 3.71094 3.92969 4.57812 3.92969 6.24219V11.5H2.69531ZM6.57812 15.2109C5.85156 15.2109 5.46094 14.8359 5.46094 14.0781V6.375C5.46094 5.61719 5.85156 5.24219 6.57812 5.24219H14.3047C15.0234 5.24219 15.4297 5.61719 15.4297 6.375V14.0781C15.4297 14.8359 15.0234 15.2109 14.3047 15.2109H6.57812Z" fill="#797979"/>
</g>
</svg>
